<svg aria-hidden="true" style="position:absolute;width:0;height:0;overflow:hidden">
  <defs>
    <symbol id="icon-clock" viewBox="0 0 26 32">
      <path fill="#fff" d="M24 3h1l1-1V1H0v1l1 1h1c0 6 3 10 6 13-3 2-6 6-6 13H0v1l1 1h24l1-1v-1h-2c0-7-3-11-7-13 4-3 7-7 7-13zm-2 0-2 6H6L4 3h18zm-1 20H5l6-6h4l6 6z" style="fill:var(--color1, #fff)"/>
    </symbol>
    <symbol id="icon-heart" viewBox="0 0 34 32">
      <path fill="#fff" d="M17 30h1l12-12s4-4 4-8c0-6-3-9-9-9-3 0-6 3-8 4-1-1-5-4-8-4-6 0-9 3-9 9 0 4 4 8 4 8l12 12h1z" style="fill:var(--color1, #fff)"/>
    </symbol>
    <symbol id="icon-wave" viewBox="0 0 41 32">
      <path fill="#fff" d="m22 13 2 1 4-1v-3c0-5-4-8-8-8-5 0-9 3-9 8v13a2 2 0 1 1-4 0v-6H0v6a9 9 0 0 0 18 0V10c0-1 0-2 2-2s2 1 2 2v3zm10 4v6c0 1 0 2-2 2s-2-1-2-2v-5l-4 1-2-2v6c0 5 4 9 8 9 5 0 9-4 9-9v-6h-7z" style="fill:var(--color1, #fff)"/>
    </symbol>
    <symbol id="icon-cursor" viewBox="0 0 21 32">
      <path fill="#fff" d="M19 18 2 1H1L0 2v25a1 1 0 0 0 1 1h1l5-6 3 8 2 1 3-2v-1l-3-8h6l1-1v-1z" style="fill:var(--color1, #fff)"/>
    </symbol>
  </defs>
</svg>
